<svg width="80" height="100" viewBox="0 0 80 100" fill="none" xmlns="http://www.w3.org/2000/svg">
<path d="M10.4568 21.531C9.76392 22.26 9.80468 23.4111 10.6198 24.0634L20.9724 33.6175C21.7875 34.3082 23.0918 34.1931 23.7847 33.3489C24.3961 32.5815 24.1923 31.5072 23.4586 30.8549L13.1468 21.4159C12.3724 20.7636 11.1497 20.8019 10.4568 21.531Z" fill="url(#paint0_linear_51_8)"/>
<path d="M51.5404 20.0344L50.4807 1.69357C50.4399 0.695952 49.5432 -0.0714487 48.4835 0.00529141C47.4238 0.0436614 46.6086 0.887802 46.6902 1.88542L47.7499 20.2263C47.7906 21.2239 48.6873 21.9913 49.747 21.9146C50.8067 21.8762 51.5811 21.0321 51.5404 20.0344Z" fill="url(#paint1_linear_51_8)"/>
<path d="M27.7789 2.03901C27.4528 1.07976 26.3931 0.580945 25.3741 0.849535C24.3552 1.1565 23.8253 2.15412 24.1106 3.11337L29.8168 20.3799C30.1428 21.3391 31.2025 21.8379 32.2215 21.5694C33.2405 21.2624 33.7703 20.2648 33.485 19.3055L27.7789 2.03901Z" fill="url(#paint2_linear_51_8)"/>
<path d="M1.8566 50.3085C7.84804 58.4045 7.80728 62.0497 7.76652 65.5797C7.48121 91.326 26.4337 99.307 37.7237 99.9209C38.5796 99.9593 39.3948 99.9977 40.2507 99.9977C50.7663 100.113 60.8743 95.9688 67.9662 88.6401L74.2429 82.1556L74.3652 82.0405L77.4628 78.8174C80.8457 75.6327 80.8457 70.4911 77.4628 67.3064C76.2808 66.1936 74.8135 65.4262 73.1832 65.1193C74.3244 61.2055 71.8789 57.1767 67.7624 56.1023C67.3548 55.9872 66.9472 55.9105 66.5396 55.8721C66.8657 55.0663 67.0287 54.2222 67.0287 53.3397C67.0287 49.4643 64.1349 46.1261 60.0999 45.3971L70.4524 35.6127C73.8353 32.428 73.8353 27.2864 70.4524 24.1017C67.0695 20.917 61.6079 20.917 58.225 24.1017C58.1435 24.1785 58.062 24.2552 58.0212 24.2936C46.6497 35.6895 32.5474 48.6969 26.9636 50.8073C23.7029 52.0735 22.9285 51.0759 20.4015 47.2005C18.6489 44.1692 16.3257 41.445 13.5542 39.1811C10.2528 36.6487 6.38075 36.572 3.16086 38.9893C-0.507365 41.7519 -1.03722 46.3947 1.8566 50.3085ZM71.2268 68.5342C72.4903 68.5342 73.7538 68.9947 74.6505 69.8772C76.5254 71.6806 76.5254 74.5583 74.6097 76.3617C74.6097 76.3617 74.6097 76.3617 74.569 76.4001L71.5529 79.5464C69.8818 80.2755 67.9254 79.9685 66.6212 78.779L66.4581 78.6255C64.8278 77.1291 64.6648 74.7118 66.0913 73.0619L70.86 68.5726L71.2268 68.5342ZM68.3738 60.4765C69.841 61.8578 69.9226 64.0449 68.6183 65.5414C68.5368 65.6181 68.4553 65.6948 68.4145 65.7716L62.9122 70.9515C61.3226 71.4887 59.57 71.1434 58.3473 70.069L58.1027 69.8388C56.5539 68.304 56.4316 65.9634 57.8174 64.3135C58.5918 63.738 61.7709 61.359 63.4828 59.9777C65.0724 59.0952 67.0695 59.287 68.3738 60.4765ZM61.6894 50.155C62.5861 50.9991 63.116 52.1502 63.116 53.3781C62.9937 54.8361 62.26 56.2174 61.1188 57.1767C59.9368 58.1359 57.4506 60.0161 55.5757 61.3974C53.9862 61.8195 52.2336 61.3974 51.0516 60.2847L50.9293 60.1696C49.1359 58.4813 49.1359 55.6803 50.9293 53.992L55.4127 49.7713C57.3283 48.3516 59.9776 48.5434 61.6894 50.155ZM5.48407 41.7903C7.31818 40.409 9.15229 40.4857 11.1087 41.9438C13.5542 43.939 15.5513 46.318 17.1001 49.0039C17.9968 50.577 19.0973 51.9967 20.4015 53.2629C20.4423 53.3013 20.483 53.3781 20.5238 53.4164C20.6868 53.5699 24.355 57.3302 20.6053 62.8171C20.0755 63.6612 20.3608 64.774 21.2982 65.2728C22.1541 65.7332 23.2546 65.503 23.8252 64.7356C25.9446 61.8578 26.5967 58.2127 25.5778 54.8361C26.5152 54.721 27.4527 54.4908 28.3493 54.1071C35.8488 51.191 53.4971 33.9628 60.752 26.7109C61.6487 25.79 62.8714 25.2912 64.1757 25.2528C65.4799 25.2144 66.7434 25.7133 67.6809 26.5958C69.5557 28.3608 69.5557 31.2385 67.6809 33.0036L48.2393 51.2677C44.9379 54.3757 44.8971 59.4022 48.1985 62.5485C48.1985 62.5485 48.1985 62.5485 48.2393 62.5869L48.3615 62.702C49.6658 63.9298 51.3776 64.7356 53.2525 64.9658C52.5596 67.6133 53.4155 70.376 55.4127 72.2945L55.5757 72.448C57.1245 73.906 59.2032 74.7118 61.4041 74.7118C61.1596 77.0524 62.0155 79.3546 63.7681 81.0045L63.9311 81.158C65.0316 82.194 66.4174 82.923 67.9662 83.2299L65.1131 86.2228L65.0316 86.2996C58.1027 93.3213 48.1578 97.0048 38.009 96.2758C33.0773 95.8921 28.3493 94.3189 24.2328 91.7865C24.5181 91.7865 24.8441 91.7865 25.1295 91.7865H25.9446C30.7133 91.4795 35.0744 88.7552 38.9872 83.6904C39.5986 82.8846 39.354 81.7335 38.4981 81.1963C37.6422 80.6592 36.5009 80.851 35.8896 81.6184C32.7104 85.8007 29.2868 88.0262 25.7408 88.2564C20.7683 88.5634 16.9778 84.8415 16.8963 84.7647C16.8148 84.688 16.7333 84.6113 16.611 84.5345C13.5542 80.1603 11.4755 74.0595 11.5978 65.6181C11.6385 60.8602 11.1902 56.5628 4.99497 48.1981C3.52768 46.318 3.16086 43.5553 5.48407 41.7903Z" fill="url(#paint3_linear_51_8)"/>
<defs>
<linearGradient id="paint0_linear_51_8" x1="-3.18397e-05" y1="100.006" x2="80" y2="100.006" gradientUnits="userSpaceOnUse">
<stop stop-color="#EC656D"/>
<stop offset="1" stop-color="#EF914F"/>
</linearGradient>
<linearGradient id="paint1_linear_51_8" x1="-3.18397e-05" y1="100.006" x2="80" y2="100.006" gradientUnits="userSpaceOnUse">
<stop stop-color="#EC656D"/>
<stop offset="1" stop-color="#EF914F"/>
</linearGradient>
<linearGradient id="paint2_linear_51_8" x1="-3.18397e-05" y1="100.006" x2="80" y2="100.006" gradientUnits="userSpaceOnUse">
<stop stop-color="#EC656D"/>
<stop offset="1" stop-color="#EF914F"/>
</linearGradient>
<linearGradient id="paint3_linear_51_8" x1="-3.18397e-05" y1="100.006" x2="80" y2="100.006" gradientUnits="userSpaceOnUse">
<stop stop-color="#EC656D"/>
<stop offset="1" stop-color="#EF914F"/>
</linearGradient>
</defs>
</svg>
