<svg width="95" height="100" viewBox="0 0 95 100" fill="none" xmlns="http://www.w3.org/2000/svg">
<path d="M76.3167 83.5H2.375C1.10833 83.5 0 84.6667 0 86V97.5C0 98.8333 1.10833 100 2.375 100H76.3167C77.5833 100 78.6917 98.8333 78.6917 97.5V86C78.6917 84.6667 77.5833 83.5 76.3167 83.5ZM73.9417 95H4.75V88.5H73.9417V95ZM59.0583 45.6667C60.325 45.6667 61.4333 44.5 61.4333 43.1667V14.1667C61.4333 12.8333 60.325 11.6667 59.0583 11.6667H19.475C18.2083 11.6667 17.1 12.8333 17.1 14.1667V43.1667C17.1 44.5 18.2083 45.6667 19.475 45.6667H59.0583ZM22.0083 16.6667H56.8417V40.6667H22.0083V16.6667ZM80.9083 1.16667L80.5917 0.833333C79.4833 0 78.0583 0.333333 77.2667 1.33333C76.475 2.5 76.7917 4 77.7417 4.83333L78.0583 5.16667C81.5417 7.83333 84.3917 11.3333 86.2917 15.3333C86.1333 15.3333 85.975 15.3333 85.8167 15.3333C81.7 15.3333 78.375 18.8333 78.375 23.1667C78.375 27.5 81.7 31 85.8167 31C87.4 31 88.825 30.5 90.0917 29.5C90.0917 30.1667 90.0917 30.6667 90.0917 31.3333V69.6667C90.0917 71.8333 88.35 73.6667 86.2917 73.6667C84.2333 73.6667 82.4917 71.8333 82.4917 69.6667V50.5C82.4917 43.6667 77.7417 37.8333 71.5667 36.6667V2.5C71.5667 1.16667 70.4583 0 69.1917 0H9.5C8.23333 0 7.125 1.16667 7.125 2.5V80.1667H11.875V5H66.975V80.1667H71.725V41.8333C75.3667 43 77.9 46.3333 77.9 50.5V69.5C77.9 74.5 81.7 78.5 86.45 78.5C91.2 78.5 95 74.5 95 69.5V31.1667C95 19.3333 89.775 8.16667 80.9083 1.16667ZM85.975 25.8333C84.55 25.8333 83.2833 24.6667 83.2833 23C83.2833 21.3333 84.3917 20.1667 85.975 20.1667C87.5583 20.1667 88.6667 21.3333 88.6667 23C88.6667 24.6667 87.4 25.8333 85.975 25.8333Z" fill="url(#paint0_linear_51_7)"/>
<defs>
<linearGradient id="paint0_linear_51_7" x1="-3.78096e-05" y1="100.006" x2="95" y2="100.006" gradientUnits="userSpaceOnUse">
<stop stop-color="#EC656D"/>
<stop offset="1" stop-color="#EF914F"/>
</linearGradient>
</defs>
</svg>
