<svg width="209" height="35" viewBox="0 0 209 35" fill="none" xmlns="http://www.w3.org/2000/svg">
<path d="M67.49 27L57.11 15.72L66.02 6H60.74L52.82 15.3V6H48.98V27H52.82V16.71L61.91 27H67.49ZM73.483 27.45C75.733 27.45 77.233 26.49 78.103 25.05H78.163V27H81.823V13.14H78.163V15.09H78.103C77.233 13.65 75.733 12.69 73.483 12.69C69.853 12.69 66.823 15.33 66.823 20.07C66.823 24.81 69.853 27.45 73.483 27.45ZM74.413 23.97C72.193 23.97 70.663 22.41 70.663 20.07C70.663 17.73 72.193 16.17 74.413 16.17C76.633 16.17 78.163 17.73 78.163 20.07C78.163 22.41 76.633 23.97 74.413 23.97ZM85.0067 33H88.6667V25.05H88.7267C89.5967 26.49 91.0967 27.45 93.3467 27.45C96.9767 27.45 100.007 24.81 100.007 20.07C100.007 15.33 96.9767 12.69 93.3467 12.69C91.0967 12.69 89.5967 13.65 88.7267 15.09H88.6667V13.14H85.0067V33ZM92.4167 23.97C90.1967 23.97 88.6667 22.41 88.6667 20.07C88.6667 17.73 90.1967 16.17 92.4167 16.17C94.6367 16.17 96.1667 17.73 96.1667 20.07C96.1667 22.41 94.6367 23.97 92.4167 23.97ZM120.079 13.14V23.61H114.919V13.14H111.229V23.61H106.069V13.14H102.409V27H123.769V13.14H120.079ZM133.349 12.69C128.999 12.69 126.149 15.69 126.149 20.1C126.149 24.51 129.089 27.45 133.619 27.45C136.529 27.45 138.389 26.1 139.619 24.96L137.759 22.29C136.979 23.07 135.599 24.18 133.619 24.18C131.489 24.18 129.929 22.95 129.719 20.82H140.069V20.1C140.069 15.36 137.549 12.69 133.349 12.69ZM133.169 15.66C134.969 15.66 136.229 16.68 136.349 18.45H129.809C130.109 16.53 131.399 15.66 133.169 15.66ZM142.399 33H146.059V25.05H146.119C146.989 26.49 148.489 27.45 150.739 27.45C154.369 27.45 157.399 24.81 157.399 20.07C157.399 15.33 154.369 12.69 150.739 12.69C148.489 12.69 146.989 13.65 146.119 15.09H146.059V13.14H142.399V33ZM149.809 23.97C147.589 23.97 146.059 22.41 146.059 20.07C146.059 17.73 147.589 16.17 149.809 16.17C152.029 16.17 153.559 17.73 153.559 20.07C153.559 22.41 152.029 23.97 149.809 23.97ZM159.802 27H163.102L169.522 18.6H169.582V27H173.272V13.14H169.942L163.522 21.54H163.462V13.14H159.802V27ZM186.222 13.14V18.12H180.132V13.14H176.472V27H180.132V21.48H186.222V27H189.912V13.14H186.222ZM202.591 13.14H193.141V27H196.801V16.53H202.591V13.14ZM206.565 22.83H202.425V27H206.565V22.83Z" fill="black"/>
<path d="M29.855 35H5.145C2.31 35 0 32.69 0 29.855V5.14497C0 2.30997 2.31 -3.43323e-05 5.145 -3.43323e-05H29.855C32.69 -3.43323e-05 35 2.30997 35 5.14497V29.855C35 32.69 32.69 35 29.855 35Z" fill="url(#paint0_linear_3_8)"/>
<path d="M26.7289 23.7066H23.5672C22.9955 23.7533 22.5055 23.3216 22.4589 22.75C22.4122 22.1783 22.8439 21.6883 23.4155 21.6416C23.4622 21.6416 23.5205 21.6416 23.5672 21.6416H26.7289C27.0322 21.6416 27.2772 21.3966 27.2772 21.0933V17.1733C27.2772 16.3216 26.5889 15.6333 25.7372 15.6333H21.8055C21.2922 15.6333 20.7789 15.4816 20.3472 15.19L14.6889 11.3633C14.1872 11.0133 13.5805 10.815 12.9622 10.815H6.58054C6.00887 10.8616 5.51887 10.43 5.4722 9.8583C5.42554 9.28663 5.8572 8.79663 6.42887 8.74997C6.47554 8.74997 6.53387 8.74997 6.58054 8.74997H12.9739C14.0005 8.74997 15.0039 9.0533 15.8555 9.63663L21.5255 13.4633C21.6072 13.5333 21.7122 13.58 21.8172 13.5916H25.7139C27.6972 13.5916 29.3189 15.2016 29.3189 17.185V21.1166C29.2955 22.5516 28.1522 23.7066 26.7289 23.7066Z" fill="white"/>
<path d="M10.5239 23.7066H6.58054C6.00887 23.7533 5.51887 23.3216 5.4722 22.75C5.42554 22.1783 5.8572 21.6883 6.42887 21.6416C6.47554 21.6416 6.53387 21.6416 6.58054 21.6416H10.5239C11.0955 21.595 11.5855 22.0266 11.6322 22.5983C11.6789 23.17 11.2472 23.66 10.6755 23.7066C10.6289 23.7183 10.5705 23.7183 10.5239 23.7066Z" fill="white"/>
<path d="M17.1155 20.4283C18.3639 20.4283 19.3789 21.4316 19.3789 22.68C19.3789 23.9283 18.3755 24.9433 17.1272 24.9433C15.8789 24.9433 14.8639 23.94 14.8639 22.6916V22.68C14.8639 21.4316 15.8672 20.4283 17.1155 20.4283ZM17.1155 18.3633C14.7239 18.3633 12.7989 20.3 12.7989 22.68C12.7989 25.0716 14.7355 26.9966 17.1155 26.9966C19.5072 26.9966 21.4322 25.06 21.4322 22.68C21.4322 20.2883 19.4955 18.3633 17.1155 18.3633Z" fill="white"/>
<defs>
<linearGradient id="paint0_linear_3_8" x1="-1.39299e-05" y1="35.002" x2="35" y2="35.002" gradientUnits="userSpaceOnUse">
<stop stop-color="#EC656D"/>
<stop offset="1" stop-color="#EF914F"/>
</linearGradient>
</defs>
</svg>
