<svg width="82" height="33" viewBox="0 0 82 33" fill="none" xmlns="http://www.w3.org/2000/svg">
<path d="M14.9829 4.25452C14.0219 5.36917 12.4842 6.24833 10.9465 6.12274C10.7543 4.6156 11.5072 3.01427 12.3881 2.02521C13.3492 0.879163 15.031 0.0627973 16.3925 0C16.5527 1.56993 15.928 3.10847 14.9829 4.25452ZM16.3765 6.42103C14.15 6.29543 12.244 7.66127 11.1868 7.66127C10.1136 7.66127 8.49588 6.48383 6.73395 6.51522C4.44346 6.54662 2.31314 7.81827 1.14386 9.84348C-1.25876 13.8939 0.519181 19.8911 2.84171 23.1879C3.97895 24.8206 5.34044 26.6104 7.13439 26.5476C8.83224 26.4848 9.50498 25.4643 11.5552 25.4643C13.6215 25.4643 14.2141 26.5476 16.0081 26.5162C17.8661 26.4848 19.0354 24.8834 20.1726 23.2507C21.47 21.3982 21.9986 19.5928 22.0306 19.4986C21.9986 19.4672 18.4427 18.1327 18.4107 14.1137C18.3786 10.754 21.2137 9.15271 21.3419 9.05852C19.7401 6.73501 17.2414 6.48383 16.3765 6.42103ZM29.2385 1.86822V26.3435H33.1147V17.9757H38.4806C43.3819 17.9757 46.8257 14.6789 46.8257 9.90628C46.8257 5.13368 43.446 1.86822 38.6087 1.86822H29.2385ZM33.1147 5.07088H37.5836C40.9472 5.07088 42.8693 6.82921 42.8693 9.92198C42.8693 13.0147 40.9473 14.7888 37.5676 14.7888H33.1147V5.07088ZM53.9054 26.5319C56.34 26.5319 58.5985 25.323 59.6236 23.4077H59.7037V26.3435H63.2916V14.1608C63.2916 10.6284 60.4085 8.35205 55.9716 8.35205C51.8551 8.35205 48.8118 10.6598 48.6997 13.8311H52.1915C52.4798 12.324 53.9054 11.3349 55.8595 11.3349C58.2301 11.3349 59.5595 12.4182 59.5595 14.412V15.7621L54.7223 16.0447C50.2214 16.3116 47.7867 18.117 47.7867 21.2569C47.7867 24.4282 50.3014 26.5319 53.9054 26.5319ZM54.9465 23.6275C52.8803 23.6275 51.5668 22.6541 51.5668 21.1627C51.5668 19.6242 52.8322 18.7293 55.2508 18.588L59.5595 18.3211V19.7027C59.5595 21.9948 57.5734 23.6275 54.9465 23.6275ZM68.0808 33C71.8609 33 73.6389 31.5871 75.1926 27.3011L82 8.58754H78.0597L73.4947 23.0466H73.4146L68.8497 8.58754H64.7972L71.3644 26.4063L71.012 27.4895C70.4194 29.3264 69.4583 30.0328 67.7445 30.0328C67.4401 30.0328 66.8475 30.0014 66.6072 29.97V32.9058C66.8315 32.9686 67.7925 33 68.0808 33Z" fill="url(#paint0_linear_1_33)"/>
<defs>
<linearGradient id="paint0_linear_1_33" x1="-3.26357e-05" y1="33.0019" x2="82" y2="33.0019" gradientUnits="userSpaceOnUse">
<stop stop-color="#EC656D"/>
<stop offset="1" stop-color="#EF914F"/>
</linearGradient>
</defs>
</svg>
