<svg width="25" height="24" viewBox="0 0 25 24" fill="none" xmlns="http://www.w3.org/2000/svg">
<path d="M6.81818 24H18.1818C21.9508 24 25 21.0727 25 17.4545V6.54545C25 2.92727 21.9508 0 18.1818 0H6.81818C3.04924 0 0 2.92727 0 6.54545V17.4545C0 21.0727 3.04924 24 6.81818 24ZM2.27273 6.54545C2.27273 4.12727 4.29924 2.18182 6.81818 2.18182H18.1818C20.7008 2.18182 22.7273 4.12727 22.7273 6.54545V17.4545C22.7273 19.8727 20.7008 21.8182 18.1818 21.8182H6.81818C4.29924 21.8182 2.27273 19.8727 2.27273 17.4545V6.54545Z" fill="url(#paint0_linear_1_9)"/>
<path d="M6.81823 18.5454C7.44323 18.5454 7.95459 18.0545 7.95459 17.4545V13.0909H11.3637V17.4545C11.3637 18.0545 11.875 18.5454 12.5 18.5454C13.125 18.5454 13.6364 18.0545 13.6364 17.4545V13.0909H15.9091C17.7841 13.0909 19.3182 11.6182 19.3182 9.81816V6.54544C19.3182 5.94544 18.8069 5.45453 18.1819 5.45453C17.5569 5.45453 17.0455 5.94544 17.0455 6.54544V9.81816C17.0455 10.4182 16.5341 10.9091 15.9091 10.9091H13.6364V6.54544C13.6364 5.94544 13.125 5.45453 12.5 5.45453C11.875 5.45453 11.3637 5.94544 11.3637 6.54544V10.9091H7.95459V6.54544C7.95459 5.94544 7.44323 5.45453 6.81823 5.45453C6.19323 5.45453 5.68186 5.94544 5.68186 6.54544V17.4545C5.68186 18.0545 6.19323 18.5454 6.81823 18.5454Z" fill="url(#paint1_linear_1_9)"/>
<path d="M18.1818 18.5455C18.8094 18.5455 19.3182 18.057 19.3182 17.4546C19.3182 16.8521 18.8094 16.3636 18.1818 16.3636C17.5542 16.3636 17.0455 16.8521 17.0455 17.4546C17.0455 18.057 17.5542 18.5455 18.1818 18.5455Z" fill="url(#paint2_linear_1_9)"/>
<defs>
<linearGradient id="paint0_linear_1_9" x1="-9.94991e-06" y1="24.0014" x2="25" y2="24.0014" gradientUnits="userSpaceOnUse">
<stop stop-color="#EC656D"/>
<stop offset="1" stop-color="#EF914F"/>
</linearGradient>
<linearGradient id="paint1_linear_1_9" x1="-9.94991e-06" y1="24.0014" x2="25" y2="24.0014" gradientUnits="userSpaceOnUse">
<stop stop-color="#EC656D"/>
<stop offset="1" stop-color="#EF914F"/>
</linearGradient>
<linearGradient id="paint2_linear_1_9" x1="-9.94991e-06" y1="24.0014" x2="25" y2="24.0014" gradientUnits="userSpaceOnUse">
<stop stop-color="#EC656D"/>
<stop offset="1" stop-color="#EF914F"/>
</linearGradient>
</defs>
</svg>
