<svg width="33" height="25" viewBox="0 0 33 25" fill="none" xmlns="http://www.w3.org/2000/svg">
<path d="M29.445 6.80717H27.0834C26.4301 6.80717 25.9025 7.31589 25.9025 7.94574V10.2229H25.287L20.9281 4.9782C20.7019 4.71172 20.3628 4.55426 20.011 4.54215H15.3003V2.27713H18.8428C19.496 2.27713 20.0236 1.76841 20.0236 1.13857C20.0236 0.508721 19.496 0 18.8428 0H9.42139C8.76818 0 8.24058 0.508721 8.24058 1.13857C8.24058 1.76841 8.76818 2.27713 9.42139 2.27713H12.9513V4.55426H8.24058C7.58736 4.55426 7.05976 5.06298 7.05976 5.69283V7.96996H4.7107C4.05748 7.96996 3.52988 8.47868 3.52988 9.10853V13.6507H2.34907V10.2229C2.34907 9.59302 1.82147 9.0843 1.16825 9.0843C0.515036 9.0843 0 9.59302 0 10.2229V19.3072C0 19.937 0.527598 20.4457 1.18081 20.4457C1.83403 20.4457 2.36163 19.937 2.36163 19.3072V15.9036H3.54244V19.3072C3.54244 19.937 4.07004 20.4457 4.72326 20.4457H7.66273L10.8409 24.5397C11.067 24.8304 11.4062 25 11.783 25H23.566C24.2193 25 24.7469 24.4913 24.7469 23.8614V19.3193H25.9277V21.5964C25.9277 22.2263 26.4553 22.735 27.1085 22.735H29.4701C31.4172 22.735 33 21.2088 33 19.3314V10.2471C32.9749 8.33333 31.3921 6.80717 29.445 6.80717ZM30.6258 19.3072C30.6258 19.937 30.0982 20.4457 29.445 20.4457H28.2642V18.1686C28.2642 17.5388 27.7366 17.03 27.0834 17.03H23.5535C22.9003 17.03 22.3727 17.5388 22.3727 18.1686V22.7108H12.3609L9.18272 18.6168C8.9566 18.3261 8.61743 18.1565 8.24058 18.1565H5.89151V10.2229H8.25314C8.90636 10.2229 9.43396 9.71415 9.43396 9.0843V6.80717H19.4709L23.8298 12.0518C24.056 12.3183 24.3951 12.4758 24.7469 12.4879H27.1085C27.7617 12.4879 28.2893 11.9792 28.2893 11.3493V9.0843H29.4701C30.1233 9.0843 30.6509 9.59302 30.6509 10.2229V19.3072H30.6258Z" fill="url(#paint0_linear_1_11)"/>
<defs>
<linearGradient id="paint0_linear_1_11" x1="-1.31339e-05" y1="25.0014" x2="33" y2="25.0014" gradientUnits="userSpaceOnUse">
<stop stop-color="#EC656D"/>
<stop offset="1" stop-color="#EF914F"/>
</linearGradient>
</defs>
</svg>
