<svg width="16" height="30" viewBox="0 0 16 30" fill="none" xmlns="http://www.w3.org/2000/svg">
<path d="M15.374 0H11.692C7.22 0 4.332 2.98264 4.332 7.60017V10.5528H0.626C0.28 10.5528 0 10.8357 0 11.1849V16.2631C0 16.6124 0.28 16.8931 0.626 16.8931H4.332V29.37C4.332 29.7172 4.612 30 4.956 30H10.176C10.524 30 10.804 29.7172 10.804 29.37V16.8909H15.372C15.718 16.8909 15.998 16.6102 15.998 16.261L16 11.1849C15.9991 11.1015 15.9824 11.0191 15.9507 10.9428C15.9191 10.8665 15.8732 10.798 15.816 10.7414C15.6961 10.6214 15.5381 10.5547 15.374 10.555H10.804V8.13371C10.804 6.70666 11.142 5.98243 12.99 5.98243L15.374 5.97386C15.718 5.97386 15.998 5.69317 15.998 5.3439V0.629955C16 0.282837 15.72 0 15.374 0Z" fill="url(#paint0_linear_1_26)"/>
<defs>
<linearGradient id="paint0_linear_1_26" x1="-6.36794e-06" y1="30.0017" x2="16" y2="30.0017" gradientUnits="userSpaceOnUse">
<stop stop-color="#EC656D"/>
<stop offset="1" stop-color="#EF914F"/>
</linearGradient>
</defs>
</svg>
