<svg width="90" height="36" viewBox="0 0 90 36" fill="none" xmlns="http://www.w3.org/2000/svg">
<path d="M41.5962 17.5827V28.132H38.2646V2.07988H47.1007C48.1554 2.05774 49.204 2.24565 50.1861 2.63275C51.1681 3.01985 52.0641 3.59848 52.8224 4.33525C53.5883 5.02729 54.1979 5.876 54.6101 6.82434C55.0224 7.77268 55.2277 8.79867 55.2125 9.83337C55.2344 10.8736 55.0322 11.9063 54.6196 12.8607C54.2071 13.8151 53.594 14.6686 52.8224 15.3627C51.2773 16.8427 49.37 17.582 47.1007 17.5806H41.5962V17.5827ZM41.5962 5.28729V14.3815H47.1834C47.796 14.3998 48.4055 14.2894 48.9732 14.0575C49.5408 13.8255 50.054 13.4771 50.4799 13.0346C50.9036 12.6208 51.2404 12.1258 51.4704 11.579C51.7003 11.0322 51.8188 10.4446 51.8188 9.85104C51.8188 9.25744 51.7003 8.66986 51.4704 8.12306C51.2404 7.57625 50.9036 7.08132 50.4799 6.66754C50.0593 6.21564 49.5479 5.85871 48.9796 5.6204C48.4113 5.38208 47.799 5.26783 47.1834 5.28521H41.5962V5.28729ZM62.8897 9.72528C65.3522 9.72528 67.296 10.3863 68.7211 11.7083C70.1462 13.0304 70.858 14.843 70.8566 17.1462V28.132H67.6699V25.6584H67.525C66.1454 27.6955 64.3106 28.7141 62.0206 28.7141C60.0657 28.7141 58.4303 28.132 57.1142 26.968C56.4826 26.4337 55.9776 25.7646 55.6361 25.0094C55.2946 24.2543 55.1251 23.4321 55.14 22.6027C55.14 20.7583 55.834 19.2914 57.2218 18.2022C58.6096 17.1129 60.4624 16.5669 62.78 16.5642C64.7583 16.5642 66.3876 16.9279 67.6678 17.6555V16.8905C67.6716 16.3251 67.55 15.766 67.312 15.2537C67.074 14.7413 66.7255 14.2886 66.2917 13.9284C65.4107 13.1299 64.2625 12.6942 63.0759 12.7082C61.2149 12.7082 59.7422 13.4967 58.6579 15.0737L55.7236 13.2175C57.3377 10.8893 59.7264 9.72528 62.8897 9.72528ZM58.5793 22.6755C58.577 23.1014 58.6762 23.5217 58.8684 23.9014C59.0606 24.281 59.3403 24.6091 59.6843 24.8581C60.4211 25.4403 61.3357 25.7488 62.273 25.7312C63.6789 25.7288 65.0266 25.1667 66.0206 24.168C67.1242 23.1245 67.6761 21.9001 67.6761 20.495C66.6373 19.6635 65.1887 19.2477 63.3305 19.2477C61.9771 19.2477 60.8486 19.5755 59.945 20.231C59.0325 20.8961 58.5793 21.7048 58.5793 22.6755ZM89.1495 10.3073L78.0248 35.9895H74.5856L78.7139 27.0033L71.3988 10.3073H75.0201L80.3073 23.112H80.3797L85.522 10.3073H89.1495Z" fill="url(#paint0_linear_1_34)"/>
<path d="M29.9931 15.3086C29.9943 14.2887 29.9085 13.2705 29.7365 12.2654H15.6857V18.0296H23.7333C23.5687 18.9502 23.2201 19.8278 22.7087 20.6095C22.1973 21.3911 21.5336 22.0607 20.7576 22.5777V26.3194H25.5606C28.3728 23.7148 29.9931 19.863 29.9931 15.3086Z" fill="url(#paint1_linear_1_34)"/>
<path d="M15.6857 29.9339C19.7064 29.9339 23.0919 28.6077 25.5606 26.3211L20.7577 22.5795C19.4209 23.49 17.6992 24.0096 15.6857 24.0096C11.7995 24.0096 8.50099 21.378 7.32147 17.8318H2.37369V21.6877C3.61377 24.1665 5.5153 26.2503 7.86599 27.7065C10.2167 29.1626 12.924 29.9338 15.6857 29.9339Z" fill="url(#paint2_linear_1_34)"/>
<path d="M7.32188 17.8319C6.69831 15.9736 6.69831 13.9613 7.32188 12.103V8.24707H2.3741C1.3309 10.3323 0.787598 12.6337 0.787598 14.9675C0.787598 17.3012 1.3309 19.6026 2.3741 21.6878L7.32188 17.8319Z" fill="url(#paint3_linear_1_34)"/>
<path d="M15.6857 5.92523C17.8105 5.89036 19.8636 6.69679 21.4012 8.17021L25.6537 3.89852C22.9572 1.35436 19.3849 -0.042419 15.6857 0.000981944C12.924 0.00110838 10.2167 0.772288 7.86599 2.22842C5.5153 3.68456 3.61377 5.76834 2.37369 8.24712L7.32147 12.1031C8.50099 8.55685 11.7995 5.92523 15.6857 5.92523Z" fill="url(#paint4_linear_1_34)"/>
<defs>
<linearGradient id="paint0_linear_1_34" x1="38.2646" y1="35.9914" x2="89.1495" y2="35.9914" gradientUnits="userSpaceOnUse">
<stop stop-color="#EC656D"/>
<stop offset="1" stop-color="#EF914F"/>
</linearGradient>
<linearGradient id="paint1_linear_1_34" x1="15.6857" y1="26.3202" x2="29.9931" y2="26.3202" gradientUnits="userSpaceOnUse">
<stop stop-color="#EC656D"/>
<stop offset="1" stop-color="#EF914F"/>
</linearGradient>
<linearGradient id="paint2_linear_1_34" x1="2.37368" y1="29.9346" x2="25.5606" y2="29.9346" gradientUnits="userSpaceOnUse">
<stop stop-color="#EC656D"/>
<stop offset="1" stop-color="#EF914F"/>
</linearGradient>
<linearGradient id="paint3_linear_1_34" x1="0.787595" y1="21.6886" x2="7.32188" y2="21.6886" gradientUnits="userSpaceOnUse">
<stop stop-color="#EC656D"/>
<stop offset="1" stop-color="#EF914F"/>
</linearGradient>
<linearGradient id="paint4_linear_1_34" x1="2.37368" y1="12.1038" x2="25.6537" y2="12.1038" gradientUnits="userSpaceOnUse">
<stop stop-color="#EC656D"/>
<stop offset="1" stop-color="#EF914F"/>
</linearGradient>
</defs>
</svg>
