<svg width="28" height="30" viewBox="0 0 28 30" fill="none" xmlns="http://www.w3.org/2000/svg">
<path d="M8 0H20C22.1217 0 24.1566 0.903059 25.6569 2.51051C27.1571 4.11797 28 6.29814 28 8.57143V21.4286C28 23.7019 27.1571 25.882 25.6569 27.4895C24.1566 29.0969 22.1217 30 20 30H8C5.87827 30 3.84344 29.0969 2.34315 27.4895C0.842855 25.882 0 23.7019 0 21.4286V8.57143C0 6.29814 0.842855 4.11797 2.34315 2.51051C3.84344 0.903059 5.87827 0 8 0ZM14 21.4286C15.5913 21.4286 17.1174 20.7513 18.2426 19.5457C19.3679 18.3401 20 16.705 20 15C20 13.295 19.3679 11.6599 18.2426 10.4543C17.1174 9.24872 15.5913 8.57143 14 8.57143C12.4087 8.57143 10.8826 9.24872 9.75736 10.4543C8.63214 11.6599 8 13.295 8 15C8 16.705 8.63214 18.3401 9.75736 19.5457C10.8826 20.7513 12.4087 21.4286 14 21.4286ZM20.888 9.52286C21.1264 9.53143 21.3639 9.48852 21.5865 9.3967C21.8091 9.30487 22.0121 9.16601 22.1836 8.98837C22.3551 8.81072 22.4914 8.59794 22.5845 8.36267C22.6776 8.12741 22.7256 7.87447 22.7256 7.61893C22.7256 7.36338 22.6776 7.11045 22.5845 6.87518C22.4914 6.63992 22.3551 6.42713 22.1836 6.24949C22.0121 6.07185 21.8091 5.93298 21.5865 5.84116C21.3639 5.74933 21.1264 5.70643 20.888 5.715C20.427 5.73157 19.9901 5.93942 19.6695 6.29467C19.3489 6.64991 19.1696 7.12475 19.1696 7.61893C19.1696 8.1131 19.3489 8.58794 19.6695 8.94319C19.9901 9.29843 20.427 9.50628 20.888 9.52286Z" fill="url(#paint0_linear_1_31)"/>
<defs>
<linearGradient id="paint0_linear_1_31" x1="-1.11439e-05" y1="30.0017" x2="28" y2="30.0017" gradientUnits="userSpaceOnUse">
<stop stop-color="#EC656D"/>
<stop offset="1" stop-color="#EF914F"/>
</linearGradient>
</defs>
</svg>
