<svg width="55" height="32" viewBox="0 0 55 32" fill="none" xmlns="http://www.w3.org/2000/svg">
<path d="M54.2404 15.7873C54.2404 24.5068 46.7736 31.5746 37.5628 31.5746C33.8179 31.5791 30.1824 30.3892 27.2531 28.2002C29.2445 26.7163 30.8521 24.8288 31.9556 22.6791C33.059 20.5294 33.6296 18.1733 33.6245 15.7873C33.6295 13.4017 33.0591 11.046 31.956 8.89666C30.8529 6.7473 29.2457 4.85998 27.2549 3.3761C30.1835 1.18667 33.8183 -0.00380439 37.5628 9.13362e-06C46.7736 9.13362e-06 54.2386 7.06945 54.2386 15.7873" fill="url(#paint0_linear_1_41)"/>
<path d="M20.8856 15.7873C20.8807 13.4017 21.4511 11.046 22.5542 8.89666C23.6573 6.7473 25.2644 4.85998 27.2553 3.3761C24.3266 1.18679 20.6919 -0.00366805 16.9473 8.49029e-06C7.73655 8.49029e-06 0.269775 7.06945 0.269775 15.7873C0.269775 24.5068 7.73655 31.5746 16.9473 31.5746C20.6917 31.5786 24.3263 30.3888 27.2553 28.2002C25.2639 26.7163 23.6562 24.8288 22.5528 22.6791C21.4494 20.5294 20.8788 18.1733 20.8838 15.7873" fill="url(#paint1_linear_1_41)"/>
<path d="M27.2553 3.37427C25.2636 4.85834 23.6558 6.74613 22.5524 8.89614C21.4489 11.0462 20.8785 13.4026 20.8838 15.7889C20.8792 18.1743 21.45 20.5298 22.5534 22.6789C23.6568 24.828 25.2642 26.7149 27.2553 28.1984C29.2462 26.7146 30.8534 24.8273 31.9565 22.6779C33.0596 20.5285 33.63 18.1728 33.6249 15.7872C33.6299 13.4016 33.0595 11.0459 31.9564 8.89655C30.8533 6.74719 29.2461 4.85988 27.2553 3.37599" fill="url(#paint2_linear_1_41)"/>
<defs>
<linearGradient id="paint0_linear_1_41" x1="27.2531" y1="31.5764" x2="54.2404" y2="31.5764" gradientUnits="userSpaceOnUse">
<stop stop-color="#EC656D"/>
<stop offset="1" stop-color="#EF914F"/>
</linearGradient>
<linearGradient id="paint1_linear_1_41" x1="0.269765" y1="31.5764" x2="27.2553" y2="31.5764" gradientUnits="userSpaceOnUse">
<stop stop-color="#EC656D"/>
<stop offset="1" stop-color="#EF914F"/>
</linearGradient>
<linearGradient id="paint2_linear_1_41" x1="20.8838" y1="28.1998" x2="33.6249" y2="28.1998" gradientUnits="userSpaceOnUse">
<stop stop-color="#EC656D"/>
<stop offset="1" stop-color="#EF914F"/>
</linearGradient>
</defs>
</svg>
