<svg width="23" height="33" viewBox="0 0 23 33" fill="none" xmlns="http://www.w3.org/2000/svg">
<path d="M9.61405 23.3903C6.64719 23.1283 3.96782 22.5075 1.67713 20.9875C1.39194 20.7978 1.09756 20.6163 0.837669 20.4038C-0.165082 19.5871 -0.266277 18.6508 0.527185 17.6855C1.20795 16.8606 2.3464 16.6378 3.53314 17.1122C3.76313 17.205 3.97932 17.3184 4.18861 17.4422C8.4618 19.9336 14.3311 20.0017 18.6181 17.5535C19.0413 17.2772 19.4967 17.0524 20.021 16.9369C21.0468 16.7141 21.999 17.0338 22.5509 17.7928C23.1765 18.659 23.1696 19.5087 22.3968 20.1811C21.2101 21.2123 19.7842 21.961 18.1995 22.4828C16.7 22.9757 15.0602 23.2253 13.4365 23.3882C13.6803 23.6151 13.7975 23.7265 13.9493 23.8564C16.1572 25.7373 18.3697 27.6101 20.5684 29.4951C21.3182 30.1386 21.4746 30.9347 21.0606 31.6813C20.8339 32.0853 20.4825 32.4224 20.0483 32.6524C19.614 32.8824 19.1152 32.9956 18.6112 32.9786C17.9856 32.9415 17.4958 32.6775 17.0611 32.3062C15.396 30.8832 13.7033 29.4889 12.0703 28.0411C11.5966 27.6204 11.3689 27.7008 10.9503 28.0659C9.27596 29.5302 7.57405 30.9698 5.86063 32.4011C5.09247 33.0446 4.17941 33.1601 3.28705 32.793C2.3395 32.4011 1.73693 31.5823 1.78292 30.7573C1.81512 30.2005 2.13941 29.7736 2.58789 29.3899C4.77278 27.542 6.94848 25.6878 9.12647 23.8358C9.27137 23.712 9.40476 23.5821 9.61405 23.3903ZM11.0055 16.8667C5.87673 16.8502 1.67483 13.0306 1.70243 8.41483C1.73463 3.7475 5.94112 -0.0123442 11.1182 3.04589e-05C16.3067 0.0124052 20.4695 3.82794 20.4442 8.5427C20.4166 13.1482 16.1848 16.8832 11.0055 16.8667ZM15.6628 8.42514C15.6649 7.88442 15.5478 7.34866 15.3184 6.84864C15.0889 6.34861 14.7515 5.89418 14.3255 5.51145C13.8996 5.12872 13.3935 4.82524 12.8364 4.61844C12.2793 4.41164 11.682 4.30561 11.0791 4.30643C10.4706 4.305 9.86795 4.41227 9.30623 4.62198C8.74451 4.83169 8.235 5.13965 7.80745 5.52786C7.37989 5.91608 7.04285 6.37678 6.816 6.88308C6.58915 7.38938 6.47703 7.93112 6.4862 8.4767C6.4886 9.01743 6.61013 9.5524 6.8438 10.0509C7.07747 10.5494 7.41868 11.0015 7.84783 11.3814C8.27697 11.7612 8.78559 12.0613 9.34445 12.2643C9.90332 12.4674 10.5014 12.5694 11.1044 12.5645C11.7076 12.564 12.3047 12.4562 12.8612 12.2476C13.4178 12.0389 13.9227 11.7333 14.3467 11.3486C14.7708 10.9639 15.1057 10.5077 15.3319 10.0062C15.5582 9.5048 15.6714 8.96812 15.6651 8.4272L15.6628 8.42514Z" fill="url(#paint0_linear_1_30)"/>
<defs>
<linearGradient id="paint0_linear_1_30" x1="-9.15391e-06" y1="33.0019" x2="23" y2="33.0019" gradientUnits="userSpaceOnUse">
<stop stop-color="#EC656D"/>
<stop offset="1" stop-color="#EF914F"/>
</linearGradient>
</defs>
</svg>
