<svg width="22" height="26" viewBox="0 0 22 26" fill="none" xmlns="http://www.w3.org/2000/svg">
<path d="M1.04602 1.72602C1.49363 1.08841 2.22898 0.642087 3.02829 0.546446C4.46703 0.355164 5.84183 1.37533 6.16155 2.84183L6.51324 4.40396C6.60916 4.81841 6.54521 5.26473 6.28943 5.61541C6.03366 5.9661 5.68197 6.22114 5.26633 6.31678L3.18815 6.7631C3.06026 6.79498 2.96434 6.79498 2.83645 6.79498C2.19701 6.79498 1.58954 6.41242 1.33377 5.8067L0.598411 4.05328L0.566438 3.95764C0.43855 3.22439 0.59841 2.3955 1.04602 1.72602ZM1.84532 3.67072L2.5487 5.36037C2.61265 5.51977 2.77251 5.58353 2.93237 5.55165L5.01055 5.10533C5.10647 5.07345 5.17041 5.04157 5.23436 4.94593C5.2983 4.88217 5.2983 4.78653 5.26633 4.69089L4.91464 3.12875C4.75478 2.36362 4.08336 1.82166 3.34801 1.82166C3.28406 1.82166 3.22012 1.82166 3.18815 1.82166C2.74054 1.88542 2.35687 2.10858 2.1011 2.45926C1.84532 2.80995 1.78138 3.25627 1.84532 3.67072Z" fill="url(#paint0_linear_1_10)"/>
<path d="M3.34804 7.17753L3.95551 7.01813C5.23439 6.66745 6.38539 6.79497 7.31258 7.36881C8.4316 8.07018 9.2309 9.40915 9.61456 11.2263L10.7336 16.8373C10.7656 17.0285 10.9254 17.1242 11.1173 17.1242L15.7212 16.6779C17.5117 16.5822 19.1103 17.0285 20.1014 17.985C20.9646 18.782 21.4762 19.9297 21.4762 21.3005V21.428C21.4762 22.3526 20.7408 23.1496 19.8776 23.4365V23.9147C19.8776 24.8073 19.1422 25.4768 18.247 25.4768H7.79216C6.89694 25.4768 6.12961 24.8073 6.12961 23.9147V21.8106C5.87383 21.4599 5.682 21.0455 5.55411 20.5991L2.16508 9.24975C1.97324 8.29334 2.4848 7.43258 3.34804 7.17753ZM7.44047 23.8828C7.44047 24.0741 7.6323 24.1697 7.82413 24.1697H18.279C18.4708 24.1697 18.6307 24.0422 18.6307 23.8828V23.5321H9.51865C8.78329 23.5321 8.04793 23.309 7.44047 22.9264V23.8828ZM3.41199 8.80343L6.833 20.1847C7.15272 21.3961 8.27174 22.2569 9.51865 22.2569H19.2701C19.7177 22.2569 20.2293 21.8425 20.2293 21.3961V21.2686C20.2293 20.2485 19.8456 19.4514 19.2382 18.8776C18.5667 18.24 17.4797 17.8893 16.2648 17.8893C16.1369 17.8893 15.977 17.8893 15.8491 17.8893L11.2771 18.3675C10.4139 18.4632 9.61456 17.8893 9.48668 17.0604L8.36765 11.5133C8.04793 10.0468 7.47244 8.99471 6.64116 8.48463C6.00172 8.10206 5.20242 8.00642 4.27523 8.26146L3.66776 8.42086C3.5079 8.48462 3.38001 8.64403 3.41199 8.80343Z" fill="url(#paint1_linear_1_10)"/>
<path fill-rule="evenodd" clip-rule="evenodd" d="M5.64972 2.95314C5.38337 1.73145 4.24479 0.912501 3.09739 1.06505L3.09059 1.06595C2.44146 1.14362 1.84098 1.50796 1.4783 2.02154C1.11645 2.56563 0.983101 3.23901 1.07637 3.83112L1.08907 3.86911L1.8164 5.60338C1.81648 5.60357 1.81632 5.60319 1.8164 5.60338C1.9875 6.00792 2.40011 6.2718 2.83644 6.2718C2.96499 6.2718 3.00251 6.27015 3.06129 6.25549L3.06963 6.25342L5.15211 5.80617C5.42622 5.74216 5.6742 5.57038 5.86605 5.30735C6.01944 5.09704 6.06985 4.81118 6.00288 4.52179L6.00217 4.51874L5.64972 2.95314ZM2.2524 7.23697C1.64116 7.06449 1.11135 6.62628 0.851119 6.01L0.850623 6.00883L0.107732 4.23744L0.0571366 4.08609L0.0503917 4.04742C-0.100273 3.18358 0.0870635 2.21822 0.610399 1.43547L0.617014 1.42558C1.14926 0.667399 2.01645 0.141606 2.96256 0.0273873C4.69075 -0.200498 6.29938 1.01948 6.67296 2.72871L7.02395 4.28771C7.14829 4.82681 7.07061 5.43289 6.7128 5.92347C6.58442 6.09949 6.43412 6.25942 6.2641 6.39603C6.73394 6.49468 7.17816 6.67014 7.58847 6.92409L7.59099 6.92566C8.8724 7.72881 9.72626 9.21988 10.1271 11.1184L10.1283 11.1241L11.2181 16.5888L15.6819 16.156L15.6932 16.1554C17.5676 16.0553 19.3292 16.5154 20.4612 17.6047C21.4362 18.5071 22 19.7959 22 21.3005V21.428C22 22.4906 21.2715 23.3625 20.4014 23.7864V23.9147C20.4014 25.1241 19.4029 26 18.247 26H7.79215C6.64989 26 5.60579 25.1367 5.60579 23.9147V21.9739C5.36005 21.6016 5.17681 21.1829 5.05132 20.7459L1.65621 9.37617L1.65146 9.35252C1.48895 8.54231 1.72978 7.7628 2.2524 7.23697ZM3.48959 7.68132C2.91376 7.85519 2.54476 8.42863 2.67441 9.12495L6.05773 20.4552C6.17149 20.8522 6.33886 21.209 6.55298 21.5025L6.65341 21.6402V23.9147C6.65341 24.4779 7.14398 24.9536 7.79215 24.9536H18.247C18.8816 24.9536 19.3538 24.4906 19.3538 23.9147V23.0592L19.7122 22.9401C20.42 22.7048 20.9524 22.0712 20.9524 21.428V21.3005C20.9524 20.0656 20.4947 19.0605 19.7458 18.3691L19.7374 18.3613C18.8888 17.5424 17.4596 17.1111 15.7604 17.1997L11.1426 17.6474H11.1172C10.9381 17.6474 10.7383 17.603 10.5637 17.4801C10.3828 17.3527 10.2592 17.1611 10.2186 16.9331L9.10141 11.3314C8.73486 9.59786 7.99089 8.41224 7.03538 7.81274C6.25553 7.33062 5.26072 7.20276 4.09418 7.52264L4.08861 7.52417L3.48959 7.68132ZM3.15097 1.29848H3.348C4.33767 1.29848 5.21596 2.01975 5.4265 3.01764L5.77285 4.55602C5.82096 4.71945 5.86049 5.02168 5.64381 5.2738C5.58449 5.35459 5.51326 5.42617 5.42466 5.48507C5.32954 5.5483 5.23628 5.58168 5.17594 5.60174L5.14871 5.61079L3.03493 6.06476C2.68124 6.13529 2.24141 5.99552 2.06399 5.55873L1.33728 3.81304L1.32761 3.7504C1.24844 3.23724 1.32032 2.6412 1.67771 2.15121C2.02181 1.67942 2.53516 1.3862 3.11418 1.30372L3.15097 1.29848ZM3.22844 2.34483C2.92785 2.39567 2.68593 2.54594 2.52446 2.76732C2.37981 2.96564 2.32158 3.23901 2.35518 3.5328L2.96951 5.00853L4.71648 4.63334L4.4018 3.23564C4.29103 2.70546 3.82763 2.34483 3.348 2.34483H3.22844ZM4.13921 7.75622C5.17653 7.47158 6.12703 7.56718 6.91032 8.0358L6.91537 8.03882C7.92708 8.65963 8.54823 9.88265 8.87946 11.4019L8.8812 11.4099L10.0025 16.9689L10.0044 16.9807C10.0859 17.509 10.6107 17.915 11.2194 17.8475L11.2225 17.8472L15.8218 17.3661H16.2647C17.5645 17.3661 18.7995 17.7391 19.5991 18.4984L19.2382 18.8776L19.5981 18.4975C19.5984 18.4978 19.5987 18.4981 19.5991 18.4984C20.3105 19.171 20.7531 20.1051 20.7531 21.2686V21.3961C20.7531 21.8186 20.5175 22.1665 20.2609 22.389C20.0023 22.6132 19.6448 22.7801 19.2701 22.7801H9.51864C8.03625 22.7801 6.71216 21.7628 6.32886 20.327L6.3313 20.3351L6.833 20.1847L6.32648 20.318C6.32727 20.321 6.32806 20.324 6.32886 20.327L2.90321 8.93031L2.89837 8.90619C2.84765 8.65331 2.93026 8.42958 3.04023 8.27423C3.14925 8.12023 3.30398 8.0026 3.47349 7.93499L3.50345 7.92304L4.13921 7.75622ZM4.13921 7.75622C4.13819 7.7565 4.13717 7.75678 4.13614 7.75706L4.27523 8.26146L4.14213 7.75545L4.13921 7.75622ZM6.36946 8.93193C5.87496 8.63708 5.22878 8.54182 4.4143 8.76586L4.40833 8.7675L3.98172 8.87941L7.33723 20.0428L7.33949 20.0513C7.59876 21.0337 8.5103 21.7337 9.51864 21.7337H19.2701C19.343 21.7337 19.4651 21.6934 19.5742 21.5988C19.6853 21.5025 19.7055 21.42 19.7055 21.3961V21.2686C19.7055 20.3923 19.3811 19.7328 18.8782 19.2577L18.8772 19.2568C18.3339 18.7408 17.3949 18.4125 16.2647 18.4125H15.8765L11.3349 18.8875C11.3343 18.8876 11.3338 18.8876 11.3333 18.8877C10.2202 19.0102 9.15123 18.2746 8.97098 17.1528L7.85497 11.6206C7.54702 10.211 7.01854 9.33164 6.36946 8.93193ZM6.91665 21.978L7.71983 22.4838C8.24711 22.8159 8.88616 23.0089 9.51864 23.0089H19.1545V23.8828C19.1545 24.4281 18.6523 24.6929 18.279 24.6929H7.82412C7.65066 24.6929 7.44722 24.6513 7.27013 24.5335C7.07753 24.4055 6.91665 24.1818 6.91665 23.8828V21.978Z" fill="url(#paint2_linear_1_10)"/>
<defs>
<linearGradient id="paint0_linear_1_10" x1="-8.75592e-06" y1="26.0015" x2="22" y2="26.0015" gradientUnits="userSpaceOnUse">
<stop stop-color="#EC656D"/>
<stop offset="1" stop-color="#EF914F"/>
</linearGradient>
<linearGradient id="paint1_linear_1_10" x1="-8.75592e-06" y1="26.0015" x2="22" y2="26.0015" gradientUnits="userSpaceOnUse">
<stop stop-color="#EC656D"/>
<stop offset="1" stop-color="#EF914F"/>
</linearGradient>
<linearGradient id="paint2_linear_1_10" x1="-8.75592e-06" y1="26.0015" x2="22" y2="26.0015" gradientUnits="userSpaceOnUse">
<stop stop-color="#EC656D"/>
<stop offset="1" stop-color="#EF914F"/>
</linearGradient>
</defs>
</svg>
