<svg width="34" height="27" viewBox="0 0 34 27" fill="none" xmlns="http://www.w3.org/2000/svg">
<path d="M34 3.19594C32.7272 3.74754 31.377 4.10946 29.9944 4.26964C31.4498 3.41748 32.5393 2.07814 33.0608 0.500283C31.6898 1.29349 30.1909 1.85319 28.628 2.15548C27.5776 1.06024 26.1867 0.334404 24.6712 0.0905634C23.1556 -0.153277 21.6001 0.0985137 20.2459 0.806873C18.8917 1.51523 17.8145 2.64056 17.1815 4.00827C16.5485 5.37599 16.3951 6.90963 16.745 8.37128C13.9717 8.23543 11.2586 7.53102 8.782 6.30381C6.30536 5.0766 4.12053 3.35401 2.36937 1.24792C1.74789 2.28761 1.42146 3.47051 1.42375 4.67461C1.42375 7.04214 2.65625 9.12722 4.52625 10.3484C3.41907 10.3123 2.33661 10.019 1.3685 9.49274V9.57789C1.36863 11.1519 1.92551 12.6775 2.94481 13.8962C3.9641 15.115 5.38313 15.9518 6.9615 16.2651C6.36288 16.4231 5.74557 16.5034 5.1255 16.5039C4.68455 16.5041 4.24466 16.4617 3.81225 16.3773C4.257 17.7318 5.12399 18.9165 6.29187 19.7655C7.45975 20.6146 8.87006 21.0855 10.3254 21.1123C7.85455 23.0059 4.80379 24.0322 1.66387 24.026C1.10075 24.026 0.546125 23.9928 0 23.9326C3.18763 25.9386 6.89957 27.0036 10.6909 27C23.5216 27 30.5341 16.6119 30.5341 7.60287L30.5129 6.71816C31.8837 5.75993 33.0652 4.56652 34 3.19594Z" fill="url(#paint0_linear_1_28)"/>
<defs>
<linearGradient id="paint0_linear_1_28" x1="-1.35319e-05" y1="27.0016" x2="34" y2="27.0016" gradientUnits="userSpaceOnUse">
<stop stop-color="#EC656D"/>
<stop offset="1" stop-color="#EF914F"/>
</linearGradient>
</defs>
</svg>
