<svg width="71" height="21" viewBox="0 0 71 21" fill="none" xmlns="http://www.w3.org/2000/svg">
<path d="M25.0109 20.6988L28.6065 0.35342H34.3551L30.7578 20.6988H25.0109ZM51.6082 0.855349C49.9566 0.278177 48.2119 -0.0113256 46.4553 0.000338936C40.7748 0.000338936 36.7737 2.76095 36.7397 6.7158C36.7074 9.63737 39.596 11.2678 41.7778 12.2422C44.0152 13.2391 44.7669 13.8743 44.7562 14.7657C44.7418 16.1278 42.9691 16.7526 41.3167 16.7526C39.0165 16.7526 37.7946 16.4446 35.9053 15.6847L35.1661 15.3611L34.3587 19.9131C35.7008 20.4842 38.184 20.9758 40.7623 21C46.8051 21 50.7273 18.2723 50.7721 14.0509C50.7937 11.7351 49.2614 9.97488 45.9457 8.52274C43.9362 7.58119 42.7054 6.95292 42.7179 6.00098C42.7179 5.15463 43.7586 4.25116 46.0103 4.25116C47.4851 4.21891 48.9505 4.48419 50.3128 5.03001L50.8278 5.26367L51.6082 0.855349ZM66.3494 0.372458H61.9052C60.5308 0.372458 59.5009 0.735924 58.8963 2.06171L50.3595 20.704H56.3952C56.3952 20.704 57.382 18.1979 57.6045 17.6475L64.9679 17.6561C65.1401 18.3692 65.6676 20.7058 65.6676 20.7058H71L66.3494 0.370727V0.372458ZM59.2587 13.4866C59.7342 12.3149 61.5499 7.79927 61.5499 7.79927C61.5158 7.85293 62.0218 6.62234 62.3125 5.85733L62.7018 7.61235L64.0313 13.4866H59.2587ZM20.1917 0.368997L14.5633 14.243L13.964 11.4218C12.9162 8.17313 9.65073 4.6527 6.00132 2.88903L11.1489 20.6815L17.2313 20.6746L26.2794 0.368997H20.1917Z" fill="url(#paint0_linear_1_40)"/>
<path d="M9.34243 0.356894H0.0735624L0 0.779207C7.21271 2.46326 11.9835 6.53408 13.9643 11.4236L11.9476 2.07211C11.5995 0.784399 10.5912 0.400164 9.34243 0.355164V0.356894Z" fill="url(#paint1_linear_1_40)"/>
<defs>
<linearGradient id="paint0_linear_1_40" x1="-2.82577e-05" y1="21.0012" x2="71" y2="21.0012" gradientUnits="userSpaceOnUse">
<stop stop-color="#EC656D"/>
<stop offset="1" stop-color="#EF914F"/>
</linearGradient>
<linearGradient id="paint1_linear_1_40" x1="-2.82577e-05" y1="21.0012" x2="71" y2="21.0012" gradientUnits="userSpaceOnUse">
<stop stop-color="#EC656D"/>
<stop offset="1" stop-color="#EF914F"/>
</linearGradient>
</defs>
</svg>
