<svg width="33" height="20" viewBox="0 0 33 20" fill="none" xmlns="http://www.w3.org/2000/svg">
<path d="M28.4 12.7162C29.4952 13.8623 30.6501 14.9383 31.6318 16.1983C32.0649 16.7583 32.4774 17.3363 32.7909 17.9863C33.2364 18.9104 32.8322 19.9264 32.0588 19.9824L27.2533 19.9784C26.0117 20.0904 25.0238 19.5544 24.1906 18.6464C23.5265 17.9203 22.9098 17.1463 22.2684 16.3983C22.0173 16.0888 21.7262 15.8118 21.4022 15.5743C20.7484 15.1183 20.1792 15.2563 19.8038 15.9903C19.4202 16.7363 19.3336 17.5623 19.2965 18.3924C19.2449 19.6044 18.9046 19.9244 17.7661 19.9784C15.3366 20.1024 13.0308 19.7084 10.888 18.3944C8.99877 17.2383 7.53445 15.6043 6.25781 13.7543C3.77671 10.1522 1.87721 6.19412 0.167464 2.12404C-0.21821 1.20802 0.0622799 0.716013 1.00893 0.700013C2.57687 0.667678 4.14533 0.666345 5.71333 0.696013C6.35062 0.706014 6.77135 1.09602 7.01884 1.74203C7.8665 3.97608 8.9039 6.10212 10.2074 8.07415C10.5559 8.59816 10.9086 9.12217 11.4139 9.49218C11.9707 9.90019 12.3956 9.76419 12.6575 9.10017C12.8225 8.67817 12.8968 8.22416 12.9339 7.77215C13.0576 6.21812 13.0741 4.66609 12.8576 3.11806C12.7235 2.15204 12.2141 1.52603 11.3149 1.34403C10.855 1.25002 10.923 1.06602 11.1458 0.786015C11.5335 0.302006 11.8965 0 12.6225 0H18.0549C18.9108 0.180003 19.1005 0.592011 19.2181 1.51403L19.2222 7.97815C19.2119 8.33416 19.3872 9.39418 19.9894 9.63018C20.4679 9.79819 20.7855 9.38618 21.0743 9.06017C22.3736 7.58014 23.3017 5.83411 24.1328 4.02408C24.5 3.22806 24.8176 2.40405 25.1228 1.57603C25.3497 0.964019 25.7065 0.662012 26.352 0.676013L31.5803 0.682013C31.735 0.682013 31.8917 0.682013 32.0423 0.710014C32.925 0.870017 33.1663 1.27802 32.894 2.20004C32.465 3.64607 31.6298 4.85009 30.8151 6.06012C29.9427 7.35214 29.0105 8.60016 28.1443 9.90019C27.3502 11.0882 27.4142 11.6862 28.4 12.7162Z" fill="url(#paint0_linear_1_27)"/>
<defs>
<linearGradient id="paint0_linear_1_27" x1="-1.31339e-05" y1="20.0012" x2="33" y2="20.0012" gradientUnits="userSpaceOnUse">
<stop stop-color="#EC656D"/>
<stop offset="1" stop-color="#EF914F"/>
</linearGradient>
</defs>
</svg>
