<svg width="33" height="24" viewBox="0 0 33 24" fill="none" xmlns="http://www.w3.org/2000/svg">
<path d="M31.713 2.06C30.525 0.596 28.3223 0 24.123 0H8.877C4.57875 0 2.343 0.636 1.155 2.194C-1.22935e-07 3.714 0 5.95 0 9.048V14.952C0 20.952 1.37362 24 8.877 24H24.123C27.7654 24 29.7846 23.474 31.0901 22.18C32.4287 20.858 33 18.696 33 14.952V9.048C33 5.782 32.9113 3.53 31.713 2.06ZM21.186 12.816L14.2622 16.556C14.1013 16.6427 13.9191 16.6852 13.7352 16.6788C13.5513 16.6725 13.3727 16.6176 13.2186 16.52C13.0592 16.417 12.9288 16.2771 12.8391 16.113C12.7494 15.9489 12.7033 15.7657 12.705 15.58V8.124C12.705 7.74 12.8989 7.384 13.2165 7.184C13.3705 7.08622 13.5492 7.03117 13.7331 7.02482C13.9171 7.01848 14.0993 7.06107 14.2601 7.148L21.1839 10.864C21.5346 11.052 21.7573 11.428 21.7573 11.838C21.7603 12.0355 21.7089 12.2303 21.6085 12.4021C21.5081 12.574 21.3622 12.7169 21.186 12.816Z" fill="url(#paint0_linear_1_29)"/>
<defs>
<linearGradient id="paint0_linear_1_29" x1="-1.31339e-05" y1="24.0014" x2="33" y2="24.0014" gradientUnits="userSpaceOnUse">
<stop stop-color="#EC656D"/>
<stop offset="1" stop-color="#EF914F"/>
</linearGradient>
</defs>
</svg>
